<svg xmlns="http://www.w3.org/2000/svg" width="1299" height="1530" viewBox="0 0 1299 1530">
<style>
@import url('https://fonts.googleapis.com/css2?family=Noto+Sans+KR:wght@400;500;700&amp;display=swap');
text { font-family: 'Noto Sans KR','Apple SD Gothic Neo','Malgun Gothic','NanumGothic',sans-serif; }
.major { fill:#dfe3e7; stroke:#9aa0a6; stroke-width:1.3; }
.middle { fill:#eef0f2; stroke:#c4c8cc; stroke-width:1.3; }
.board { fill:#f6f7f9; stroke:#d4d8dc; stroke-width:1.3; }
.pill { fill:#5b6168; stroke:#4a4f55; stroke-width:1.3; }
.line { fill:none; stroke:#b4b9be; stroke-width:1.4; }
.mainline { fill:none; stroke:#b4b9be; stroke-width:1.6; }
.t-major { font-size:12.5px; font-weight:700; fill:#202124; text-anchor:middle; }
.t-mid { font-size:12px; font-weight:500; fill:#3c4043; text-anchor:middle; }
.t-pill { font-size:11px; font-weight:400; fill:#f1f3f4; text-anchor:middle; }
</style>
<rect width="1299" height="1530" fill="#ffffff"/>

<rect x="342" y="84" width="939" height="1116" rx="12" fill="none" stroke="#5BA7C7" stroke-width="1.8"/>
<text x="492" y="74" font-size="13" font-weight="700" fill="#3a8bb0">웹 서비스  ·  로그인 영역</text>
<rect x="342" y="1270" width="939" height="186" rx="12" fill="none" stroke="#9B7FD4" stroke-width="1.8"/>
<text x="492" y="1260" font-size="13" font-weight="700" fill="#7d5fc2">확장 프로그램 (브라우저 사이드 패널)  ·  로그인 영역</text>

<path d="M159,114 V152" stroke="#202124" stroke-width="2"/>
<path d="M154,146 l5,6 l5,-6" fill="#202124"/>
<rect x="96" y="158" width="126" height="36" rx="5" fill="#1f2429" stroke="#1f2429" stroke-width="1.5"/>
<text x="159" y="181" font-size="12.5" font-weight="700" fill="#ffffff" text-anchor="middle">로그인 (Google)</text>

<rect x="70" y="228" width="178" height="70" rx="10" fill="none" stroke="#E08585" stroke-width="1.8"/>
<text x="159" y="320" font-size="12" font-weight="700" fill="#cf6a6a" text-anchor="middle">비로그인 영역</text>
<rect x="96" y="246" width="126" height="32" rx="7" class="middle"/>
<text x="159" y="266" class="t-major">회원가입</text>
<path d="M159,246 V226 H159 V194" class="line"/>

<path d="M222,176 H364" class="mainline"/>
<path d="M364,118 V1176" class="mainline"/>
<path d="M364,118 H404" class="line"/>
<path d="M364,176 H404" class="line"/>
<path d="M364,296 H404" class="line"/>
<path d="M364,466 H404" class="line"/>
<path d="M364,716 H404" class="line"/>
<path d="M364,796 H404" class="line"/>
<path d="M364,916 H404" class="line"/>
<path d="M364,1076 H404" class="line"/>
<path d="M364,1176 H404" class="line"/>

<rect x="404" y="102" width="212" height="32" rx="7" fill="#f6f7f9" stroke="#9aa0a6" stroke-width="1.4" stroke-dasharray="5 3"/>
<text x="510" y="122" font-size="11.5" font-weight="700" fill="#5f6368" text-anchor="middle">온보딩 모달 (최초 로그인 시)</text>

<rect x="404" y="160" width="150" height="32" rx="7" class="major"/>
<text x="479" y="180" class="t-major">메인 페이지</text>
<path d="M554,176 H592 V136 H630" class="line"/>
<rect x="630" y="120" width="156" height="32" rx="7" class="middle"/>
<text x="708" y="140" class="t-mid">지원 현황 대시보드</text>
<path d="M786,136 H856" class="line"/>
<rect x="856" y="120" width="292.6" height="32" rx="16" class="pill"/>
<text x="1002.3" y="140" class="t-pill">지원완료·마감임박·진행중·지원전 · 유저 대비 상위%</text>
<path d="M554,176 H630" class="line"/>
<rect x="630" y="160" width="156" height="32" rx="7" class="middle"/>
<text x="708" y="180" class="t-mid">공고 장바구니 미리보기</text>
<path d="M786,176 H856" class="line"/>
<rect x="856" y="160" width="140" height="32" rx="16" class="pill"/>
<text x="926" y="180" class="t-pill">마감순 · D-7 강조</text>
<path d="M554,176 H592 V216 H630" class="line"/>
<rect x="630" y="200" width="156" height="32" rx="7" class="middle"/>
<text x="708" y="220" class="t-mid">추천 공고 미리보기</text>
<path d="M786,216 H856" class="line"/>
<rect x="856" y="200" width="166.8" height="32" rx="16" class="pill"/>
<text x="939.4" y="220" class="t-pill">온보딩 기반 맞춤 추천 카드</text>

<rect x="404" y="280" width="150" height="32" rx="7" class="major"/>
<text x="479" y="300" class="t-major">공고 장바구니</text>
<path d="M554,296 H592 V256 H630" class="line"/>
<rect x="630" y="240" width="156" height="32" rx="7" class="middle"/>
<text x="708" y="260" class="t-mid">공고 목록</text>
<path d="M786,256 H856" class="line"/>
<rect x="856" y="240" width="156.2" height="32" rx="16" class="pill"/>
<text x="934.1" y="260" class="t-pill">회사·직무·상태·마감·링크</text>
<path d="M554,296 H630" class="line"/>
<rect x="630" y="280" width="156" height="32" rx="7" class="middle"/>
<text x="708" y="300" class="t-mid">캘린더 · 주간 일정</text>
<path d="M786,296 H856" class="line"/>
<rect x="856" y="280" width="140" height="32" rx="16" class="pill"/>
<text x="926" y="300" class="t-pill">마감 일정 표시</text>
<path d="M554,296 H592 V336 H630" class="line"/>
<rect x="630" y="320" width="156" height="32" rx="7" class="middle"/>
<text x="708" y="340" class="t-mid">노션 자동 동기화</text>
<path d="M786,336 H856" class="line"/>
<rect x="856" y="320" width="150.1" height="32" rx="16" class="pill"/>
<text x="931" y="340" class="t-pill">공고·자소서·도화지 연동</text>

<rect x="404" y="450" width="150" height="32" rx="7" class="major"/>
<text x="479" y="470" class="t-major">지원 워크스페이스</text>
<path d="M554,466 H592 V376 H630" class="line"/>
<rect x="630" y="360" width="156" height="32" rx="7" class="middle"/>
<text x="708" y="380" class="t-mid">도화지 (자소서 작성)</text>
<path d="M786,376 H856" class="line"/>
<rect x="856" y="360" width="195.8" height="32" rx="16" class="pill"/>
<text x="953.9" y="380" class="t-pill">마크다운 · 문항별 작성 · 글자수</text>
<path d="M554,466 H592 V416 H630" class="line"/>
<rect x="630" y="400" width="156" height="32" rx="7" class="middle"/>
<text x="708" y="420" class="t-mid">자소서 버전관리</text>
<path d="M786,416 H856" class="line"/>
<rect x="856" y="400" width="152.7" height="32" rx="16" class="pill"/>
<text x="932.4" y="420" class="t-pill">V1↔V2 비교 · 변경 이력</text>
<path d="M554,466 H592 V556 H630" class="line"/>
<rect x="630" y="540" width="156" height="32" rx="7" class="middle"/>
<text x="708" y="560" class="t-mid">참고자료</text>

<path d="M786,556 H821 V456 H856" class="line"/>
<rect x="856" y="440" width="150" height="32" rx="7" class="board"/>
<text x="931" y="460" class="t-mid">JD 게시판</text>
<path d="M1006,456 H1082" class="line"/>
<rect x="1082" y="440" width="173" height="32" rx="16" class="pill"/>
<text x="1168.5" y="460" class="t-pill">이미지·마크다운·항목 정리</text>
<path d="M786,556 H821 V496 H856" class="line"/>
<rect x="856" y="480" width="150" height="32" rx="7" class="board"/>
<text x="931" y="500" class="t-mid">DART 게시판</text>
<path d="M1006,496 H1082" class="line"/>
<rect x="1082" y="480" width="162.4" height="32" rx="16" class="pill"/>
<text x="1163.2" y="500" class="t-pill">확인경로·자유작성·정리 메모</text>
<path d="M786,556 H821 V536 H856" class="line"/>
<rect x="856" y="520" width="150" height="32" rx="7" class="board"/>
<text x="931" y="540" class="t-mid">인재상 게시판</text>
<path d="M1006,536 H1082" class="line"/>
<rect x="1082" y="520" width="156.2" height="32" rx="16" class="pill"/>
<text x="1160.1" y="540" class="t-pill">키워드 정리·내 경험 매칭</text>
<path d="M786,556 H821 V576 H856" class="line"/>
<rect x="856" y="560" width="150" height="32" rx="7" class="board"/>
<text x="931" y="580" class="t-mid">뉴스기사 게시판</text>
<path d="M1006,576 H1082" class="line"/>
<rect x="1082" y="560" width="150.1" height="32" rx="16" class="pill"/>
<text x="1157" y="580" class="t-pill">링크 수집·지원동기/포부</text>
<path d="M786,556 H821 V616 H856" class="line"/>
<rect x="856" y="600" width="150" height="32" rx="7" class="board"/>
<text x="931" y="620" class="t-mid">프롬프트 게시판</text>
<path d="M1006,616 H1082" class="line"/>
<rect x="1082" y="600" width="140" height="32" rx="16" class="pill"/>
<text x="1152" y="620" class="t-pill">프롬프트 저장·복사</text>
<path d="M786,556 H821 V656 H856" class="line"/>
<rect x="856" y="640" width="150" height="32" rx="7" class="board"/>
<text x="931" y="660" class="t-mid">메모 게시판</text>
<path d="M1006,656 H1082" class="line"/>
<rect x="1082" y="640" width="140" height="32" rx="16" class="pill"/>
<text x="1152" y="660" class="t-pill">자유 메모</text>

<rect x="404" y="700" width="150" height="32" rx="7" class="major"/>
<text x="479" y="720" class="t-major">추천 공고</text>
<path d="M554,716 H592 V696 H630" class="line"/>
<rect x="630" y="680" width="156" height="32" rx="7" class="middle"/>
<text x="708" y="700" class="t-mid">채용 플랫폼 추천</text>
<path d="M786,696 H856" class="line"/>
<rect x="856" y="680" width="185.3" height="32" rx="16" class="pill"/>
<text x="948.6" y="700" class="t-pill">온보딩 기반 · 별표 → 장바구니</text>
<path d="M554,716 H592 V736 H630" class="line"/>
<rect x="630" y="720" width="156" height="32" rx="7" class="middle"/>
<text x="708" y="740" class="t-mid">Mattermost 추천</text>
<path d="M786,736 H856" class="line"/>
<rect x="856" y="720" width="140" height="32" rx="16" class="pill"/>
<text x="926" y="740" class="t-pill">SSAFY 교육생만 노출</text>

<rect x="404" y="780" width="150" height="32" rx="7" class="major"/>
<text x="479" y="800" class="t-major">서류 입력 정보</text>
<path d="M554,796 H592 V776 H630" class="line"/>
<rect x="630" y="760" width="156" height="32" rx="7" class="middle"/>
<text x="708" y="780" class="t-mid">서류 항목 입력</text>
<path d="M786,776 H856" class="line"/>
<rect x="856" y="760" width="183.5" height="32" rx="16" class="pill"/>
<text x="947.8" y="780" class="t-pill">학력·어학·자격증·수상·경력 등</text>
<path d="M554,796 H592 V816 H630" class="line"/>
<rect x="630" y="800" width="156" height="32" rx="7" class="middle"/>
<text x="708" y="820" class="t-mid">커스텀 항목 추가</text>
<path d="M786,816 H856" class="line"/>
<rect x="856" y="800" width="140" height="32" rx="16" class="pill"/>
<text x="926" y="820" class="t-pill">기업별 특수 항목</text>

<rect x="404" y="900" width="150" height="32" rx="7" class="major"/>
<text x="479" y="920" class="t-major">과거 지원 내역</text>
<path d="M554,916 H592 V856 H630" class="line"/>
<rect x="630" y="840" width="156" height="32" rx="7" class="middle"/>
<text x="708" y="860" class="t-mid">기간 선택</text>
<path d="M786,856 H856" class="line"/>
<rect x="856" y="840" width="140" height="32" rx="16" class="pill"/>
<text x="926" y="860" class="t-pill">연도·반기 드롭다운</text>
<path d="M554,916 H592 V896 H630" class="line"/>
<rect x="630" y="880" width="156" height="32" rx="7" class="middle"/>
<text x="708" y="900" class="t-mid">결과 대시보드</text>
<path d="M786,896 H856" class="line"/>
<rect x="856" y="880" width="322" height="32" rx="16" class="pill"/>
<text x="1017" y="900" class="t-pill">서류·필기·면접 합격·미지원·기업유형 그래프 · 유저 대비 위치</text>
<path d="M554,916 H592 V936 H630" class="line"/>
<rect x="630" y="920" width="156" height="32" rx="7" class="middle"/>
<text x="708" y="940" class="t-mid">지원 회고 메모</text>
<path d="M786,936 H856" class="line"/>
<rect x="856" y="920" width="140" height="32" rx="16" class="pill"/>
<text x="926" y="940" class="t-pill">기간별 결과 직접 정리</text>
<path d="M554,916 H592 V976 H630" class="line"/>
<rect x="630" y="960" width="156" height="32" rx="7" class="middle"/>
<text x="708" y="980" class="t-mid">지원 내역 목록</text>
<path d="M786,976 H856" class="line"/>
<rect x="856" y="960" width="156.2" height="32" rx="16" class="pill"/>
<text x="934.1" y="980" class="t-pill">회사·직무·상태·마감·링크</text>

<rect x="404" y="1060" width="150" height="32" rx="7" class="major"/>
<text x="479" y="1080" class="t-major">마이페이지</text>
<path d="M554,1076 H592 V1016 H630" class="line"/>
<rect x="630" y="1000" width="156" height="32" rx="7" class="middle"/>
<text x="708" y="1020" class="t-mid">내 계정</text>
<path d="M786,1016 H856" class="line"/>
<rect x="856" y="1000" width="140.4" height="32" rx="16" class="pill"/>
<text x="926.2" y="1020" class="t-pill">Google 로그인 · 탈퇴</text>
<path d="M554,1076 H592 V1056 H630" class="line"/>
<rect x="630" y="1040" width="156" height="32" rx="7" class="middle"/>
<text x="708" y="1060" class="t-mid">노션 연동 관리</text>
<path d="M786,1056 H856" class="line"/>
<rect x="856" y="1040" width="140" height="32" rx="16" class="pill"/>
<text x="926" y="1060" class="t-pill">자동 동기화 설정</text>
<path d="M554,1076 H592 V1096 H630" class="line"/>
<rect x="630" y="1080" width="156" height="32" rx="7" class="middle"/>
<text x="708" y="1100" class="t-mid">온보딩 정보</text>
<path d="M786,1096 H856" class="line"/>
<rect x="856" y="1080" width="193.2" height="32" rx="16" class="pill"/>
<text x="952.6" y="1100" class="t-pill">희망 직무·기업·지역·스킬·SSAFY</text>
<path d="M554,1076 H592 V1136 H630" class="line"/>
<rect x="630" y="1120" width="156" height="32" rx="7" class="middle"/>
<text x="708" y="1140" class="t-mid">고객지원</text>
<path d="M786,1136 H856" class="line"/>
<rect x="856" y="1120" width="174.7" height="32" rx="16" class="pill"/>
<text x="943.4" y="1140" class="t-pill">문의·FAQ·이용약관·제휴 제안</text>

<rect x="404" y="1160" width="150" height="32" rx="7" class="major"/>
<text x="479" y="1180" class="t-major">알림</text>
<path d="M554,1176 H630" class="line"/>
<rect x="630" y="1160" width="156" height="32" rx="7" class="middle"/>
<text x="708" y="1180" class="t-mid">알림 드롭다운</text>
<path d="M786,1176 H856" class="line"/>
<rect x="856" y="1160" width="183.5" height="32" rx="16" class="pill"/>
<text x="947.8" y="1180" class="t-pill">마감 임박·상태 변경·추천·저장</text>

<path d="M159,194 V1372 H364" class="mainline"/>
<path d="M364,1332 V1412" class="mainline"/>
<path d="M364,1332 H404" class="line"/>
<path d="M364,1412 H404" class="line"/>

<rect x="404" y="1316" width="150" height="32" rx="7" class="major"/>
<text x="479" y="1336" class="t-major">공고 저장하기</text>
<path d="M554,1332 H592 V1312 H630" class="line"/>
<rect x="630" y="1296" width="156" height="32" rx="7" class="middle"/>
<text x="708" y="1316" class="t-mid">현재 페이지 공고 감지</text>
<path d="M786,1312 H856" class="line"/>
<rect x="856" y="1296" width="140" height="32" rx="16" class="pill"/>
<text x="926" y="1316" class="t-pill">직무 다중 체크 선택</text>
<path d="M554,1332 H592 V1352 H630" class="line"/>
<rect x="630" y="1336" width="156" height="32" rx="7" class="middle"/>
<text x="708" y="1356" class="t-mid">공고 장바구니 담기</text>
<path d="M786,1352 H856" class="line"/>
<rect x="856" y="1336" width="140" height="32" rx="16" class="pill"/>
<text x="926" y="1356" class="t-pill">선택 직무 담기</text>

<rect x="404" y="1396" width="150" height="32" rx="7" class="major"/>
<text x="479" y="1416" class="t-major">서류 정보 입력하기</text>
<path d="M554,1412 H592 V1392 H630" class="line"/>
<rect x="630" y="1376" width="156" height="32" rx="7" class="middle"/>
<text x="708" y="1396" class="t-mid">페이지별 자동 입력</text>
<path d="M786,1392 H856" class="line"/>
<rect x="856" y="1376" width="179.1" height="32" rx="16" class="pill"/>
<text x="945.6" y="1396" class="t-pill">현재 페이지 채움 · 성공/실패</text>
<path d="M554,1412 H592 V1432 H630" class="line"/>
<rect x="630" y="1416" width="156" height="32" rx="7" class="middle"/>
<text x="708" y="1436" class="t-mid">실패 항목 처리</text>
<path d="M786,1432 H856" class="line"/>
<rect x="856" y="1416" width="170.3" height="32" rx="16" class="pill"/>
<text x="941.2" y="1436" class="t-pill">텍스트 복사 · PDF 다운로드</text>

<rect x="70" y="1490" width="30" height="18" rx="4" class="major"/>
<text x="128" y="1503" font-size="11" font-weight="500" fill="#5f6368">대분류</text>
<rect x="180" y="1490" width="30" height="18" rx="4" class="middle"/>
<text x="238" y="1503" font-size="11" font-weight="500" fill="#5f6368">중분류</text>
<rect x="290" y="1490" width="30" height="18" rx="4" class="board"/>
<text x="348" y="1503" font-size="11" font-weight="500" fill="#5f6368">게시판</text>
<rect x="400" y="1490" width="30" height="18" rx="9" class="pill"/>
<text x="458" y="1503" font-size="11" font-weight="500" fill="#5f6368">기능·설명</text>
</svg>
