<svg width="1536" height="864" viewBox="0 0 1536 864" preserveAspectRatio="xMidYMid meet" fill="none" xmlns="http://www.w3.org/2000/svg" role="img" aria-labelledby="title desc">
  <title id="title">EZ-ONE logo</title>
  <desc id="desc">EZ-ONE wordmark with a document check icon and Korean tagline.</desc>
  <defs>
    <linearGradient id="brandPurple" x1="188" y1="235" x2="1350" y2="620" gradientUnits="userSpaceOnUse">
      <stop stop-color="#6D4DFF"/>
      <stop offset="1" stop-color="#7A5CFF"/>
    </linearGradient>
    <linearGradient id="brandDark" x1="470" y1="290" x2="790" y2="540" gradientUnits="userSpaceOnUse">
      <stop stop-color="#111827"/>
      <stop offset="1" stop-color="#0B1020"/>
    </linearGradient>
  </defs>

  <rect width="1536" height="864" fill="#FFFFFF"/>

  <g stroke="url(#brandPurple)" stroke-width="24" stroke-linecap="round" stroke-linejoin="round">
    <path d="M177 332C177 285.056 215.056 247 262 247H359L446 334V535C446 581.944 407.944 620 361 620H262C215.056 620 177 581.944 177 535V332Z"/>
    <path d="M359 248V315C359 331.569 372.431 345 389 345H445"/>
    <path d="M245 485L307 547L382 466"/>
  </g>

  <text x="505" y="575" fill="url(#brandDark)" font-family="Arial Black, Arial, sans-serif" font-size="210" font-weight="900" letter-spacing="8">EZ-</text>
  <text x="885" y="575" fill="url(#brandPurple)" font-family="Arial Black, Arial, sans-serif" font-size="210" font-weight="900" letter-spacing="8">ONE</text>

  <text x="768" y="720" text-anchor="middle" font-family="Pretendard, Noto Sans KR, Malgun Gothic, Arial, sans-serif" font-size="64" font-weight="800" fill="#111827">
    쉽게 <tspan fill="#6D4DFF">지원(Z-ONE)</tspan>하자
  </text>
</svg>
